<svg
      width="96"
      height="62"
      viewBox="0 0 400 411.911"
      version="1.1"
      xmlns="http://www.w3.org/2000/svg"
    >
      <g fillRule="evenodd" stroke="none">
        <path
          fill="#040404"
          d="M71.064 63.658c-.349 12.794-.283 242.125.072 249.377.204 4.158.432 5.791.87 6.233.327.33 2.574 2.724 4.994 5.32 2.42 2.597 5.84 6.203 7.6 8.014 4.035 4.152 14.801 15.416 27.716 28.998 1.987 2.09 3.73 3.684 3.873 3.542.143-.142.35-28.672.46-63.4.11-34.728.282-63.547.383-64.042.283-1.389.604-1.144 3.154 2.4 1.306 1.815 2.519 3.36 2.694 3.433a.58.58 0 01.32.497c0 .2.347.77.771 1.267.425.497 3.382 4.413 6.571 8.703 3.19 4.29 5.951 7.98 6.135 8.2.184.22 1.761 2.38 3.504 4.8 2.763 3.836 4.035 5.548 5.36 7.214.182.228 1.557 2.118 3.057 4.2 1.5 2.082 3.151 4.326 3.67 4.986 1.363 1.733 1.265 1.6 4.73 6.4 1.747 2.42 3.281 4.49 3.408 4.6.127.11 1.933 2.539 4.013 5.397 3.208 4.409 10.844 14.705 11.869 16.003.174.22 1.575 2.109 3.114 4.198 1.539 2.088 3.018 4.068 3.286 4.4.481.592 11.109 14.905 12.434 16.743 2.503 3.473 2.335 3.434 4.09.959.741-1.045 1.453-1.99 1.582-2.1.129-.11 1.48-1.91 3.002-4 1.521-2.09 2.918-3.98 3.104-4.2.187-.22 1.534-2.02 2.994-4 1.46-1.98 2.801-3.66 2.98-3.733.179-.074.326-.346.326-.604 0-.259.41-.919.911-1.467.501-.548 2.042-2.569 3.424-4.491 1.382-1.923 2.733-3.723 3.002-4 .269-.278 1.9-2.47 3.623-4.872 1.724-2.402 3.29-4.562 3.481-4.8 1.486-1.854 2.591-3.329 4.97-6.633 1.505-2.09 2.973-4.038 3.262-4.329.29-.29.527-.661.527-.824 0-.163.318-.645.707-1.072.389-.426 1.951-2.485 3.47-4.575 1.52-2.09 2.877-3.89 3.016-4 .139-.11 2.123-2.81 4.408-6 2.286-3.19 4.298-5.98 4.472-6.2l1.259-1.6c.519-.66 2.17-2.91 3.669-5 1.5-2.09 2.84-3.89 2.978-4 .137-.11 1.495-1.91 3.017-4 1.521-2.09 2.919-3.98 3.107-4.2.188-.22 1.865-2.47 3.728-5 1.863-2.53 3.611-4.87 3.884-5.2.274-.33 1.113-1.458 1.865-2.507 2.24-3.128 2.194-3.697 2.298 28.418.196 60.614.47 97.77.723 98.023.143.144 1.35-.908 2.681-2.337 1.331-1.428 5.592-5.902 9.469-9.941 3.877-4.04 7.139-7.485 7.249-7.656.11-.171 3.647-3.886 7.859-8.256 4.213-4.369 8.326-8.664 9.14-9.544.815-.88 2.791-2.968 4.393-4.641 1.602-1.673 3.249-3.555 3.66-4.182.814-1.242 1.204-250.165.409-260.284l-.339-4.306-33.261.154c-20.505.095-34.258.315-35.861.574-4.267.688-7.943 1.649-9.695 2.534-.382.193-.88.351-1.108.351-1.185 0-12.797 6.292-13.997 7.585-.11.118-1.19 1.017-2.4 1.997-6.316 5.116-13.523 14.943-16.001 21.818-.158.44-.583 1.481-.944 2.314-.36.832-.655 1.779-.655 2.105 0 .326-.159.904-.353 1.286-1.798 3.538-2.85 16.398-1.923 23.495 1.776 13.592 9.562 27.55 20.083 36 1.095.88 2.23 1.825 2.521 2.1.291.275.662.5.825.5.163 0 .655.315 1.093.7 1.071.94 1.889 1.433 4.954 2.984 1.43.724 2.66 1.451 2.733 1.616.074.165.444.3.824.3.379 0 1.039.264 1.467.587.427.323 1.093.593 1.481.6.388.007 1.018.175 1.4.373.679.352 3.488 1.188 6.695 1.993 4.95 1.242 16.032 1.567 20.895.612 1.306-.256 2.546.955 1.377 1.344-.26.087-.472.335-.472.551 0 .336-1.768 2.936-2.407 3.54-.116.11-.553.735-.97 1.39-.417.654-.911 1.374-1.096 1.6-.186.225-2.876 4.01-5.977 8.41-3.102 4.4-5.799 8.06-5.995 8.133a.583.583 0 00-.355.501c0 .36-23.854 33.972-24.389 34.366-.149.11-.612.785-1.027 1.5-.416.715-.898 1.3-1.07 1.3-.173 0-.314.27-.314.6 0 .33-.168.6-.373.6s-.477.328-.605.729c-.127.402-.552 1.077-.943 1.5-.744.806-2.799 3.637-4.439 6.118-.529.799-1.077 1.543-1.218 1.653-.141.11-2.577 3.44-5.413 7.4-2.835 3.96-5.303 7.26-5.482 7.333-.18.074-.327.346-.327.604 0 .259-.45.956-1 1.55-.55.593-1 1.173-1 1.288 0 .32-5.349 7.606-5.696 7.758-.167.074-.307.344-.312.6-.004.257-.634 1.185-1.4 2.063-.765.877-1.392 1.726-1.392 1.886 0 .16-.532.834-1.181 1.499-1.171 1.198-2.419 1.306-2.419.21 0-.289-.158-.584-.351-.658-.193-.073-3.378-4.363-7.078-9.533-3.699-5.17-6.961-9.638-7.249-9.929-.287-.29-.522-.65-.522-.8-.001-.149-.451-.794-1-1.433-.55-.639-1-1.269-1.001-1.4 0-.131-.54-.868-1.199-1.638-.659-.77-1.199-1.522-1.199-1.671-.001-.15-.244-.515-.541-.812-.894-.893-49.46-68.97-49.46-69.329 0-.122-.358-.606-.796-1.076-1.445-1.551-4.835-6.82-4.677-7.27.084-.243.586-.391 1.113-.328 8.275.985 16.964.347 23.614-1.734 1.019-.319 2.147-.58 2.505-.58.359 0 .964-.16 1.346-.356a45.566 45.566 0 012.095-.955c5.179-2.219 11.482-5.991 14.783-8.847 4.431-3.833 10.817-11.045 10.817-12.215 0-.235.18-.427.4-.427.22 0 .4-.248.4-.551 0-.303.234-.745.521-.983.474-.394 2.439-4.171 3.987-7.666 4.921-11.108 5.525-27.305 1.479-39.6-1.057-3.212-5.466-12.311-6.396-13.2-.115-.11-.548-.74-.963-1.4-2.615-4.167-10.323-11.816-14.128-14.02-.715-.414-1.3-.894-1.3-1.066 0-.173-.16-.314-.356-.314-.195 0-1.53-.687-2.967-1.526-4.05-2.367-12.514-5.681-14.497-5.676-.451.001-.991-.162-1.2-.363-.802-.77-6.203-.923-38.216-1.083l-33.036-.165-.264 9.671"
        ></path>
        <path
          fill="white"
          d="M0 205.8v205.8h400V0H0v205.8M138.6 53.624c.88.223 2.5.56 3.6.748 1.1.188 2.99.644 4.2 1.012s2.695.768 3.3.888 1.1.378 1.1.573c0 .195.257.355.572.355.723 0 5.003 2.022 7.628 3.603 1.1.663 2.315 1.314 2.7 1.447.385.134.7.39.7.57 0 .179.328.43.729.558.402.127 1.077.55 1.5.939.424.389 1.489 1.242 2.366 1.895 2.077 1.547 6.498 5.954 8.013 7.988.656.88 1.597 2.048 2.092 2.596.495.548.9 1.223.9 1.5 0 .277.139.504.309.504.17 0 .663.675 1.096 1.5.433.825.889 1.59 1.013 1.7.24.213 3.451 6.85 3.967 8.2.86 2.25 2.282 7.408 2.591 9.4.12.77.391 2.21.603 3.2.506 2.358.486 13.242-.029 15.8-.221 1.1-.49 2.72-.599 3.6-.108.88-.341 1.96-.518 2.4-.176.44-.637 1.88-1.023 3.2-1.073 3.665-4.385 11.036-5.092 11.333-.175.074-.318.359-.318.634 0 .512-2.789 4.68-3.825 5.715-.316.317-.575.73-.575.92 0 .43-8.737 9.198-9.165 9.198-.172 0-.745.384-1.274.853-1.281 1.138-5.023 3.547-5.508 3.547-.213 0-.446.143-.52.318-.262.628-7.8 4.069-11.133 5.083-4.269 1.299-4.665 1.399-5.567 1.399-.5 0-1.866.278-3.033.617-1.655.481-3.767.592-9.563.5-4.091-.064-7.438-.071-7.437-.014 0 .057 4.23 6.04 9.4 13.297 5.17 7.257 9.4 13.36 9.4 13.564 0 .203.154.429.342.503.373.145 9.658 12.97 9.658 13.34 0 .125.45.713 1 1.306.55.594 1 1.224 1 1.4 0 .177.45.807 1 1.4.55.594 1 1.291 1 1.55 0 .258.155.53.345.604.19.073 4.903 6.523 10.475 14.333 5.571 7.81 10.276 14.26 10.455 14.333.179.074.325.306.325.517 0 .211.179.601.397.867 2.193 2.667 3.308 4.135 3.68 4.841.244.463.558.932.698 1.042.541.424 4.425 6.007 4.425 6.361 0 .205.154.432.342.506.187.073 2.203 2.743 4.478 5.933s4.25 5.89 4.389 6c.138.11.592.785 1.007 1.5.773 1.329 2.184 1.781 2.184.7 0-.33.139-.6.309-.6.17 0 .648-.63 1.063-1.4.415-.77.894-1.4 1.064-1.4.171 0 .411-.315.535-.7.124-.385.766-1.33 1.426-2.1.661-.77 1.202-1.522 1.202-1.671.001-.15.232-.51.514-.8.282-.291 4.637-6.289 9.678-13.329 5.041-7.04 9.4-13.038 9.687-13.329.287-.29.522-.65.523-.8 0-.149.54-.901 1.199-1.671s1.199-1.522 1.199-1.671c.001-.15.232-.51.515-.8.283-.291 1.138-1.429 1.9-2.529.762-1.1 1.484-2.09 1.604-2.2.121-.11 4.189-5.78 9.042-12.6a43507.21 43507.21 0 0117.881-25.109c4.983-6.99 9.059-12.885 9.059-13.1 0-.215.135-.391.3-.392.165 0 .93-.943 1.7-2.096.77-1.152 1.713-2.443 2.095-2.869.383-.426.8-1.103.927-1.505.128-.401.43-.729.672-.729.241 0 .316-.124.164-.275-.151-.151-3.826-.233-8.166-.183-4.911.057-8.421-.075-9.292-.35-.77-.243-2.3-.601-3.4-.794-3.841-.676-7.789-1.854-8.459-2.524-.151-.151-.502-.274-.78-.274-.907 0-7.201-3.159-9.964-5-.66-.44-1.491-.98-1.847-1.2-3.11-1.924-8.488-6.856-11.353-10.41-.878-1.09-1.91-2.33-2.292-2.756-.383-.426-.8-1.103-.927-1.505-.128-.401-.4-.729-.605-.729-.205 0-.373-.154-.373-.343 0-.188-.9-1.906-2-3.818-1.1-1.912-2-3.633-2-3.825 0-.192-.3-.949-.668-1.682-1.217-2.429-1.332-2.716-1.332-3.332 0-.336-.172-.923-.383-1.305-.651-1.183-1.617-5.145-1.617-6.633 0-.778-.18-1.526-.4-1.662-.542-.335-.542-18.065 0-18.4.22-.136.4-.884.4-1.662 0-1.488.966-5.45 1.617-6.633.211-.382.383-.969.383-1.305 0-.336.171-.923.381-1.305.209-.382.678-1.415 1.043-2.295 5.244-12.661 15.82-23.563 28.904-29.796 1.39-.662 2.775-1.204 3.076-1.204.302 0 .66-.18.796-.4.136-.22.651-.4 1.144-.4.493 0 1.067-.17 1.276-.377.414-.411 2.834-1.077 5.98-1.647 1.1-.2 2.81-.538 3.8-.752 1.957-.423 67.486-.596 68.567-.181.576.221.632 12.28.624 132.7l-.009 132.457-2.23 2.4c-3.874 4.167-19.323 20.404-24.352 25.595-1.32 1.362-5.01 5.237-8.2 8.611-9.724 10.283-11.143 11.68-11.681 11.5-.421-.14-.557-12.298-.721-64.539-.111-35.402-.249-64.187-.306-63.967-.058.22-.642 1.009-1.298 1.754-.657.745-1.194 1.476-1.194 1.625 0 .148-.32.619-.71 1.046-.391.426-1.842 2.348-3.224 4.27-1.383 1.923-2.736 3.723-3.008 4-.272.278-1.836 2.354-3.476 4.614-1.64 2.259-3.345 4.599-3.789 5.2L257.415 265c-1.304 1.76-2.515 3.26-2.693 3.333-.177.074-.322.346-.322.604 0 .259-.408.919-.907 1.467-.499.548-2.598 3.336-4.664 6.196s-3.873 5.29-4.014 5.4c-.142.11-2.12 2.81-4.395 6-2.276 3.19-4.253 5.89-4.393 6-.141.11-1.497 1.91-3.014 4-1.517 2.09-2.905 3.86-3.086 3.933-.18.074-.327.346-.327.604 0 .259-.407.919-.905 1.467-.497.548-2.144 2.706-3.658 4.796-1.515 2.09-2.908 3.86-3.096 3.933-.187.074-.344.344-.347.6-.004.257-.499 1.032-1.1 1.723-.602.691-2.174 2.745-3.494 4.566-1.32 1.82-2.588 3.505-2.818 3.744-.23.239-1.723 2.234-3.318 4.434a683.19 683.19 0 01-5.909 8c-1.655 2.2-3.839 5.125-4.854 6.5-2.638 3.573-2.541 3.612-7.257-2.875-1.449-1.994-3.042-4.073-3.539-4.621-.498-.548-.905-1.208-.905-1.467 0-.258-.154-.53-.341-.604-.188-.073-1.578-1.843-3.09-3.933-1.511-2.09-2.856-3.89-2.988-4-.132-.11-1.481-1.91-2.996-4-1.516-2.09-2.869-3.89-3.006-4-.138-.11-1.479-1.91-2.98-4s-2.879-3.86-3.064-3.933c-.184-.074-.335-.306-.335-.517 0-.362-.327-.827-1.5-2.135-.275-.307-.5-.736-.5-.953 0-.217-.146-.455-.324-.529-.177-.073-1.122-1.213-2.1-2.533-.977-1.32-2.001-2.638-2.276-2.929-.275-.29-.5-.652-.5-.804 0-.152-.627-.994-1.392-1.871-.766-.878-1.396-1.806-1.4-2.063-.005-.256-.162-.526-.349-.6-.188-.073-1.581-1.843-3.096-3.933-1.514-2.09-3.161-4.248-3.658-4.796-.498-.548-.905-1.208-.905-1.467 0-.258-.152-.53-.337-.604-.186-.073-1.76-2.113-3.499-4.533-1.738-2.42-3.354-4.58-3.59-4.8-.235-.22-2.028-2.65-3.982-5.4-1.955-2.75-3.666-5.09-3.803-5.2-.137-.11-1.489-1.91-3.004-4-1.516-2.09-2.866-3.89-3-4-.135-.11-1.488-1.91-3.008-4-1.519-2.09-3.081-4.149-3.47-4.575-.389-.427-.707-.894-.707-1.039 0-.145-.379-.696-.843-1.225-.464-.528-1.679-2.127-2.7-3.552l-1.857-2.592-.321 64.192c-.176 35.305-.458 64.329-.626 64.497-.305.306-3.332-2.724-13.71-13.723a1625.928 1625.928 0 00-8.346-8.783c-1.589-1.65-5.253-5.496-8.143-8.546-2.89-3.05-6.334-6.661-7.654-8.024a592.265 592.265 0 01-5.5-5.787l-3.1-3.309V186.233c0-72.875.12-132.62.267-132.766.448-.448 66.144-.296 67.933.157"
        ></path>
        <path
          fill="#a0a0a0"
          d="M70.58 53.708c-.112.292-.148 3.042-.08 6.111l.125 5.581.087-5.909.088-5.909 33.9.134c18.645.074 34.44.262 35.1.418 1.184.279 1.186.276.2-.225-1.509-.768-69.128-.963-69.42-.201m184.665-.076c-2.462.484-2.681.947-.245.519 1.1-.193 17.12-.351 35.6-.351h33.6l.203 35.2.204 35.2.096-35.257c.088-31.838.036-35.281-.536-35.5-.988-.379-66.951-.198-68.922.189M143.8 55.027c1.1.315 2.598.769 3.33 1.009.731.241 1.424.343 1.539.228.115-.115-.574-.419-1.53-.676-.956-.258-2.152-.63-2.658-.828-.505-.198-1.315-.347-1.8-.332-.484.015.019.285 1.119.599m105.8-.266c-.33.185-1.269.456-2.086.603-.817.147-1.612.471-1.766.719-.192.312-.041.356.486.141.421-.172 2.026-.638 3.566-1.036 1.839-.476 2.388-.731 1.6-.744-.66-.011-1.47.132-1.8.317m-99.2 2.284c.77.345 1.713.791 2.095.991.382.2.922.358 1.2.35.748-.021-1.376-1.155-2.195-1.172-.385-.008-.7-.194-.7-.414 0-.22-.405-.396-.9-.391-.728.007-.632.129.5.636m93-.245c-.136.22-.494.4-.796.4-1.123 0-7.42 3.249-10.704 5.523-2.869 1.986-2.277 1.905.848-.117 2.386-1.543 5.287-3.02 10.852-5.525.77-.346 1.096-.641.724-.655-.372-.014-.788.154-.924.374m-89 1.774c0 .096 1.125.742 2.5 1.436 2.84 1.432 2.686 1.029-.214-.561-1.929-1.057-2.286-1.194-2.286-.875m7.2 4.007c0 .099.81.738 1.8 1.419s1.8 1.078 1.8.882c0-.196-.63-.695-1.4-1.11-.77-.415-1.4-.893-1.4-1.063 0-.17-.18-.309-.4-.309-.22 0-.4.081-.4.181m65.6 3.559c-5.326 4.21-11.842 12.14-14.346 17.46-.568 1.207-.559 1.195 3.262-4.65 2.639-4.036 8.512-10.488 12.084-13.275.88-.686 1.51-1.254 1.4-1.261-.11-.008-1.19.769-2.4 1.726m-58.72 1.812c1.694 1.583 4.115 3.996 5.379 5.363 1.459 1.576 1.872 1.9 1.129.885-1.496-2.043-5.925-6.455-7.993-7.963-.877-.639-.209.132 1.485 1.715m9.397 10.808c1.058 1.517 1.974 2.712 2.035 2.654.198-.185-1.299-2.609-1.612-2.611-.165-.002-.306-.228-.313-.503-.015-.551-1.363-2.3-1.774-2.3-.142 0 .607 1.242 1.664 2.76m3.369 5.667c.678 1.335 1.304 2.356 1.392 2.269.23-.231-1.983-4.679-2.332-4.688-.162-.005.261 1.084.94 2.419m30.439 1.186c-.267.427-.478 1.004-.469 1.282.009.278.293-.006.631-.63.703-1.297.571-1.827-.162-.652M182.8 87.256c0 .747 1.969 4.787 1.983 4.068.009-.482-.163-.988-.383-1.124-.22-.136-.406-.552-.413-.924-.011-.583-1.187-2.585-1.187-2.02m27.611 1.389c-.226.635-.591 1.468-.811 1.85-.22.382-.392 1.012-.383 1.4.009.388.459-.36 1-1.662.54-1.302.897-2.452.794-2.556-.104-.103-.374.332-.6.968m-25.42 4.555c.686 2.792 1.468 5.39 1.68 5.583.445.405-.952-5.078-1.515-5.948-.32-.494-.357-.413-.165.365m23.646.043c-.728 2.228-1.433 5.234-1.411 6.019.014.516.447-.682.961-2.662.513-1.98.866-3.671.783-3.757-.083-.087-.233.093-.333.4m-21.608 8.157c.135.66.386 4.53.558 8.6l.313 7.4-.085-7.6c-.054-4.854-.256-7.961-.558-8.6-.464-.98-.469-.976-.228.2m19.663.042c-.161.16-.274 1.026-.252 1.925l.04 1.633.369-1.573c.39-1.665.327-2.469-.157-1.985m-.245 16.434c-.026.922.133 1.788.353 1.924.452.279.452-.625 0-2.4-.288-1.133-.308-1.107-.353.476m-19.394 1.065c-.167.847-.212 1.634-.098 1.747.303.303.742-1.703.559-2.556-.094-.442-.277-.121-.461.809m20.173 2.997c-.014.517.256 1.957.601 3.2.855 3.08.969 3.401 1.143 3.219.083-.086-.27-1.777-.783-3.757-.514-1.98-.947-3.178-.961-2.662m-21.177 2.262c-.289 1.1-.713 2.501-.941 3.113-.229.612-.314 1.214-.19 1.339.125.124.439-.557.698-1.513.26-.956.65-2.12.867-2.586.218-.467.327-1.187.244-1.6-.091-.452-.363.048-.678 1.247m23.172 5.105c-.012.388.14 1.018.336 1.4.196.382.563 1.213.815 1.847.252.633.554 1.056.671.939.117-.117.033-.546-.186-.952-.218-.406-.672-1.459-1.007-2.339-.335-.88-.618-1.283-.629-.895m-25.939 3.283c-1.35 3.314-1.382 4.132-.044 1.112a155.14 155.14 0 011.269-2.799c.235-.495.332-.996.215-1.113-.118-.117-.765 1.143-1.44 2.8m27.945 1.812c-.001.33.263.949.586 1.376.747.988.739.339-.013-.976-.332-.58-.572-.748-.573-.4m-29.97 2.457c-.282.452-.425.909-.317 1.016.107.108.404-.195.66-.673.256-.478.398-.935.317-1.016-.081-.081-.378.222-.66.673m31.989 1.539c.493.877.962 1.53 1.041 1.45.172-.172-1.481-3.046-1.752-3.046-.102 0 .217.718.711 1.596m-34.625 3.126c-.636 1.033-1.517 2.283-1.958 2.778-.442.495-.635.9-.43.9.441 0 3.982-5.118 3.722-5.379-.098-.098-.699.668-1.334 1.701m36.276-.237c.276.486.728 1.129 1.003 1.428.275.299.5.677.5.84 0 .163.315.647.7 1.076.385.428 1.419 1.671 2.297 2.761 1.958 2.429 5.916 6.354 7.803 7.738a38.04 38.04 0 012.496 2.02c.603.547 1.19.899 1.306.783.116-.116-1.113-1.225-2.732-2.464-3.83-2.934-8.378-7.705-11.246-11.798-2.199-3.139-3.186-4.245-2.127-2.384m-40.036 5.415c-.437.605-1.797 2.09-3.022 3.3-1.225 1.21-2.23 2.372-2.233 2.583-.007.449 5.473-5.253 6.038-6.283.592-1.078.104-.829-.783.4m-7.661 7.737c-.99.887-1.44 1.433-1 1.213 1.178-.589 3.556-2.916 2.9-2.838-.055.007-.91.738-1.9 1.625m-4.974 3.601c-1.526 1.079-2.634 1.962-2.463 1.962.507 0 5.437-3.341 5.437-3.685 0-.408.217-.533-2.974 1.723m-5.602 3.375c-.428.323-.597.587-.377.587.22 0 .749-.264 1.177-.587.427-.323.596-.588.376-.588-.22 0-.749.265-1.176.588m79.376-.454c0 .263 5.95 3.042 6.495 3.034.278-.004-.804-.608-2.404-1.343-1.6-.734-3.025-1.45-3.166-1.592-.284-.283-.925-.352-.925-.099m-83.2 2.265c-.33.207-2.22.913-4.2 1.568s-3.24 1.189-2.8 1.187c.875-.006 4.859-1.305 5.275-1.72.142-.143.543-.265.892-.272.348-.007.982-.277 1.409-.6.849-.641.392-.771-.576-.163M246 165.4c.55.314 1.45.57 2 .568.793-.002.668-.123-.6-.58-2.033-.732-2.692-.727-1.4.012m-103 1l-.8.344.8.022c.44.012 1.07-.153 1.4-.366.795-.514-.204-.514-1.4 0m106.6 0c.33.213 1.05.373 1.6.354l1-.034-1-.32c-1.542-.494-2.364-.494-1.6 0m-111.8.866c-.88.212-4.795.329-8.7.26-3.905-.069-7.1.009-7.1.173 0 .378 2.805 4.301 3.075 4.301.11 0-.447-.9-1.237-2.001-.791-1.1-1.438-2.045-1.438-2.1-.001-.054 3.374-.049 7.5.011 5.64.083 7.946-.031 9.3-.46 2.031-.644 1.045-.773-1.4-.184m117 .157c2.473.841 18.43.69 18.718-.177.149-.448-.114-.486-1.367-.2-1.874.428-14.828.472-17.351.06l-1.8-.295 1.8.612m16.719 2.18c-.877 1.54-.617 1.539.481-.003.47-.66.707-1.199.527-1.197-.18.001-.634.541-1.008 1.2m-2 2.8c-.877 1.54-.617 1.539.481-.003.47-.66.707-1.199.527-1.197-.18.001-.634.541-1.008 1.2M126 173.6c.47.66.944 1.2 1.054 1.2.11 0-.184-.54-.654-1.2-.47-.66-.944-1.2-1.054-1.2-.11 0 .184.54.654 1.2m141.643 1.437c-.496.57-.819 1.121-.716 1.223.102.102.578-.364 1.057-1.037 1.064-1.494.882-1.593-.341-.186m-139.549 1.522c.769 1.154 3.621 5.191 5.681 8.041 1.078 1.491 2.541 3.59 4.829 6.925 1.254 1.828 2.364 3.24 2.467 3.138.187-.188-13.391-19.463-13.711-19.463-.095 0 .236.612.734 1.359m135.48 4.341c-1.595 2.255-3.074 4.325-3.286 4.6-.212.275-.291.5-.175.5.117 0 1.517-1.845 3.113-4.1 1.595-2.255 3.074-4.325 3.286-4.6.212-.275.291-.5.175-.5-.117 0-1.517 1.845-3.113 4.1m-4.774 6.7c-.47.66-.764 1.2-.654 1.2.11 0 .584-.54 1.054-1.2.47-.66.764-1.2.654-1.2-.11 0-.584.54-1.054 1.2m-2 2.8c-.47.66-.764 1.2-.654 1.2.11 0 .584-.54 1.054-1.2.47-.66.764-1.2.654-1.2-.11 0-.584.54-1.054 1.2m-8.03 11.3c-3.791 5.335-7.067 9.925-7.28 10.2-.214.275-.293.5-.178.5.116 0 1.971-2.475 4.123-5.5s4.014-5.59 4.139-5.7c.124-.11.837-1.1 1.583-2.2s2.157-3.125 3.135-4.5c.978-1.375 1.686-2.5 1.574-2.5-.112 0-3.305 4.365-7.096 9.7m-106.069-4.469a124.69 124.69 0 012.499 3.515c2.754 4.089 5.714 8.073 5.877 7.911.23-.231-9.171-13.433-9.576-13.447-.165-.005.375.904 1.2 2.021m8.899 12.271c0 .498 1.568 2.437 1.587 1.961.007-.185-.347-.794-.787-1.354-.44-.559-.8-.833-.8-.607m2.46 3.693c.486.657.959 1.12 1.051 1.027.223-.223-1.224-2.193-1.623-2.209-.172-.007.086.525.572 1.182m83.297 4.505c-1.919 2.695-3.662 5.125-3.873 5.4-.21.275-.287.5-.171.5.117 0 1.521-1.845 3.122-4.1s3.35-4.685 3.886-5.4c.535-.715.873-1.3.75-1.3s-1.794 2.205-3.714 4.9m-81.706-2.205c.985 1.247 1.152 1.474 3.062 4.168 4.577 6.457 7.739 10.737 7.932 10.737.115 0-.658-1.225-1.718-2.721-7.7-10.872-9.167-12.865-9.476-12.871-.192-.005-.102.305.2.687M232 225.2c-.47.66-.764 1.2-.654 1.2.11 0 .584-.54 1.054-1.2.47-.66.764-1.2.654-1.2-.11 0-.584.54-1.054 1.2m-2.361 3.181c-.529.857-1.384 2.05-1.9 2.651-.517.601-.939 1.199-.94 1.33 0 .131-.54.868-1.199 1.638-.659.77-1.199 1.522-1.199 1.671-.001.15-.23.51-.509.8-1.08 1.123-3.543 4.729-3.226 4.721.184-.004 1.895-2.209 3.803-4.9a1968 1968 0 015.122-7.192c.909-1.265 1.508-2.295 1.331-2.289-.177.006-.755.712-1.283 1.57M167.68 232.1c.536.715 2.74 3.782 4.898 6.816 2.158 3.034 4.03 5.409 4.161 5.278.131-.13.053-.363-.173-.516-.226-.153-2.436-3.113-4.911-6.578-2.474-3.465-4.6-6.3-4.724-6.3-.124 0 .213.585.749 1.3m-50.383 45.2l.097 39.7.203-39.391.203-39.391 1.857 2.591c1.021 1.425 2.236 3.024 2.7 3.552.464.529.843 1.08.843 1.225 0 .145.318.612.707 1.039.389.426 1.954 2.485 3.479 4.575 1.524 2.09 2.96 3.997 3.192 4.238.232.241 1.592 2.081 3.022 4.089 1.43 2.008 2.744 3.656 2.92 3.662.177.006-.119-.574-.657-1.289-.537-.715-2.788-3.73-5.002-6.7s-4.259-5.708-4.543-6.085c-.285-.376-2.318-3.118-4.518-6.093-2.2-2.975-4.135-5.412-4.3-5.416-.165-.003-.256 17.859-.203 39.694M276.283 239c-.614.77-.994 1.4-.844 1.4.297 0 1.135-.988 1.782-2.1.636-1.093.282-.829-.938.7m1.515 63.367c.002 52.214.099 64.199.521 64.339.538.18 1.957-1.216 11.681-11.5 3.19-3.374 6.88-7.249 8.2-8.611 5.029-5.191 20.478-21.428 24.352-25.595l2.23-2.4-.084-21.4-.084-21.4-.207 21.485-.207 21.485-1.818 1.915c-1 1.053-3.276 3.445-5.058 5.315-1.782 1.87-4.094 4.3-5.139 5.4a2815.21 2815.21 0 01-5.743 6.015c-9.695 10.13-19.418 20.346-23.017 24.185-4.312 4.6-4.932 5.112-5.23 4.322-.109-.287-.243-29.142-.298-64.122l-.101-63.6.002 64.167M274 242c-.47.66-.701 1.2-.513 1.2.187 0 .659-.54 1.049-1.2.39-.66.621-1.2.514-1.2-.108 0-.58.54-1.05 1.2m-60.454 8.7c-3.572 5.005-6.932 9.685-7.467 10.4-.536.715-.873 1.3-.75 1.3s1.801-2.205 3.729-4.9a925.569 925.569 0 016.757-9.3c3.708-5.02 4.773-6.6 4.451-6.6-.125 0-3.149 4.095-6.72 9.1m57.033-4c-1.283 1.705-2.596 3.415-2.918 3.8-.322.385-.422.696-.223.691.199-.004.902-.764 1.562-1.688.66-.925 1.885-2.631 2.722-3.792 2.337-3.241 1.485-2.504-1.143.989m-92.457 0c1.96 2.68 7.964 10.954 12.48 17.2 2.108 2.915 3.937 5.3 4.064 5.3.128 0 .054-.225-.164-.5s-2.067-2.84-4.11-5.7c-2.042-2.86-3.866-5.26-4.053-5.333a.586.586 0 01-.339-.506c0-.42-2.977-4.632-6.191-8.761-.771-.99-1.612-2.205-1.869-2.7-.258-.495-.635-.9-.838-.9-.204 0 .255.855 1.02 1.9M266 252.8c-.47.66-.764 1.2-.654 1.2.11 0 .584-.54 1.054-1.2.47-.66.764-1.2.654-1.2-.11 0-.584.54-1.054 1.2m-1.83 2.5c-.426.495-2.023 2.61-3.55 4.7-1.527 2.09-3.011 4.038-3.298 4.329-.287.29-.522.65-.523.8 0 .149-.533.894-1.183 1.654-.65.761-1.09 1.476-.978 1.589.113.113.331.007.484-.234.596-.942 5.133-7.107 6.099-8.289 2.59-3.168 5.124-7.078 2.949-4.549m-59.941 8.2c-.124.385-.767 1.33-1.429 2.1s-1.305 1.715-1.429 2.1c-.124.385-.354.7-.512.7-.157 0-.608.585-1 1.3l-.714 1.3 1.023-1.2c1.859-2.18 5.082-7 4.68-7-.217 0-.495.315-.619.7m-67.128.6c.22.275 1.88 2.57 3.689 5.1 1.809 2.53 3.469 4.666 3.688 4.746.341.125-3.436-5.385-4.076-5.946-.126-.11-.913-1.145-1.749-2.3-.837-1.155-1.618-2.1-1.736-2.1-.118 0-.035.225.184.5m114.437 8.2c-1.385 1.925-2.664 3.68-2.844 3.9-1.565 1.914-4.178 5.634-4.052 5.767.2.211-.166.68 4.194-5.367 2.062-2.86 4.158-5.648 4.657-6.196.838-.92 1.151-1.604.734-1.604-.095 0-1.305 1.575-2.689 3.5m-55.691-1.1c.722 1.091 1.329 1.583 1.906 1.546l.847-.055-.848-.167c-.467-.091-1.183-.787-1.591-1.545-.409-.758-.885-1.379-1.058-1.379-.173 0 .162.72.744 1.6m-50.189 4.5c.886 1.264 5.136 7.132 5.407 7.467.074.091.218.084.319-.018.101-.101-.214-.659-.7-1.241-.486-.582-1.945-2.509-3.241-4.283-2.26-3.092-3.674-4.617-1.785-1.925m95.882 10.2c-1.383 1.925-2.7 3.702-2.927 3.95-.227.247-1.943 2.555-3.813 5.128s-3.798 5.153-4.284 5.733c-.486.58-.801 1.137-.7 1.238.224.225-.085.606 3.208-3.949 1.51-2.09 2.861-3.89 3.001-4 .14-.11 1.925-2.54 3.967-5.4 2.043-2.86 3.892-5.425 4.11-5.7.218-.275.296-.5.174-.5s-1.353 1.575-2.736 3.5m-89.934-2c.004.165.499.863 1.1 1.55.602.688 2.264 2.89 3.694 4.894 1.43 2.004 2.751 3.646 2.936 3.65.184.003-.086-.514-.6-1.149-.515-.635-2.261-2.975-3.881-5.2-2.844-3.907-3.262-4.389-3.249-3.745m8.022 10.7c-.002.508 1.534 2.371 1.764 2.141.095-.095-.263-.705-.795-1.357-.533-.651-.969-1.004-.969-.784m2.658 3.7c.387.605.886 1.298 1.109 1.541.223.242 1.125 1.453 2.005 2.691.88 1.238 1.738 2.255 1.908 2.259.169.005-.978-1.701-2.549-3.791-2.788-3.709-3.887-4.909-2.473-2.7m64.26 7.8a6613.62 6613.62 0 01-3.84 5.2c-.611.825-.975 1.497-.809 1.494.167-.004 1.473-1.646 2.903-3.65s3.092-4.206 3.694-4.894c.999-1.142 1.36-1.85.944-1.85-.089 0-1.391 1.665-2.892 3.7m-58.932-.771c-.008.18.24.582.55.892.311.311.646.793.746 1.072.099.279.287.41.418.291.13-.118-.199-.748-.731-1.4-.533-.651-.975-1.036-.983-.855m1.986 2.888c0 .12.475.705 1.056 1.3l1.056 1.083-.883-1.3c-.835-1.228-1.229-1.575-1.229-1.083m-99.128 6.45l-.072 4.067 3.1 3.314c4.377 4.681 6.224 6.519 6.05 6.024-.082-.235-1.5-1.837-3.15-3.56-5.888-6.147-5.371-5.243-5.628-9.836l-.227-4.076-.073 4.067m102.731-1.567c.906 1.265 2.053 2.791 2.55 3.39.497.6 2.06 2.71 3.475 4.689s2.729 3.604 2.921 3.61c.192.006.17-.214-.048-.489-.219-.275-2.594-3.425-5.279-7-4.697-6.254-7.023-8.954-3.619-4.2m47.213 1.277c-.479.673-.723 1.217-.543 1.21.438-.016 1.858-1.989 1.61-2.237-.108-.108-.588.354-1.067 1.027m-3.635 4.923a2766.009 2766.009 0 00-2.899 3.8c-.209.275-.223.493-.031.485.192-.009.821-.684 1.399-1.5.577-.817 1.802-2.52 2.722-3.785 2.519-3.465 1.68-2.761-1.191 1m-7.85 10.534c-2.382 3.209-4.601 6.156-4.931 6.549-.33.392-1.77 2.361-3.2 4.374-2.135 3.006-2.759 3.634-3.488 3.51-.488-.083-.793.003-.676.191.554.897 1.767.142 3.468-2.158 1.017-1.375 3.074-4.138 4.572-6.139l4.34-5.8c3.12-4.173 4.65-6.361 4.449-6.361-.112 0-2.153 2.625-4.534 5.834m-25.088-2.534c.832 1.155 2.052 2.82 2.712 3.7.659.88 1.255 1.675 1.322 1.767.068.091.206.084.307-.018.101-.101-.255-.716-.792-1.366-1.334-1.616-1.398-1.7-3.132-4.083-.84-1.155-1.618-2.1-1.728-2.1-.11 0 .48.945 1.311 2.1m-101.196 4.278c.686.782 3.226 3.492 5.645 6.022 2.419 2.53 5.296 5.545 6.393 6.7 1.098 1.155 2.137 2.1 2.309 2.1.322 0-2.96-3.459-11.027-11.622-2.512-2.542-4.006-3.982-3.32-3.2m34.151 17.022l-.198 18-2.204-2.2c-1.213-1.21-5.083-5.246-8.6-8.968-7.815-8.27-8.17-8.632-8.481-8.632-.137 0-.11.135.058.3.169.165 2.764 2.902 5.767 6.083 10.549 11.174 13.41 14.027 13.738 13.699.182-.182.283-8.419.224-18.306l-.106-17.976-.198 18m71.608-15.1c.004.165.499.863 1.1 1.55.602.688 2.264 2.89 3.694 4.894 1.43 2.004 2.751 3.646 2.935 3.65.184.003-.243-.759-.948-1.694a997.023 997.023 0 01-3.872-5.2c-2.502-3.38-2.922-3.843-2.909-3.2"
        ></path>
        <path
          fill="#747474"
          d="M70.977 54.117c-.109.284-.144 3.299-.077 6.7L71.022 67l.089-6.507.089-6.507 33.1.153c18.205.085 33.91.264 34.9.4 1.37.187 1.227.111-.6-.321-3.4-.803-67.317-.899-67.623-.101m184.423.115c-2.318.511-2.331.521-.4.3 1.954-.225 68.539-.65 68.663-.439.034.059.178 9.197.319 20.307l.257 20.2.081-20.257c.072-18.151.014-20.283-.553-20.5-1.381-.53-65.863-.163-68.367.389m-112.8.968c.136.22.642.387 1.124.372.845-.027.847-.041.076-.372-1.101-.473-1.492-.473-1.2 0m107.8 0c-.533.345-.533.388 0 .388.33 0 .87-.175 1.2-.388.533-.345.533-.388 0-.388-.33 0-.87.175-1.2.388m-104.054 1.016c.74.321 1.64.576 2 .566.36-.009-.066-.277-.946-.594-2.073-.746-2.794-.728-1.054.028m100.054.009c-.77.291-1.106.54-.746.552.36.013 1.26-.24 2-.561 1.666-.724.662-.716-1.254.009m-92.2 2.927c1.76.829 3.982 2.002 4.938 2.607.956.604 1.824 1.012 1.93.906.24-.239-4.087-2.676-7.179-4.043-3.533-1.562-3.304-1.172.311.53m86.242-.715c-.967.429-1.674.865-1.57.969.104.104 1.076-.251 2.159-.788 2.343-1.161 1.917-1.293-.589-.181m-7.859 4.345c-1.751 1.091-4.173 2.905-5.383 4.032l-2.2 2.049 2.2-1.731c1.21-.953 2.29-1.832 2.4-1.954.11-.121 1.595-1.098 3.3-2.169 2.745-1.725 3.398-2.209 2.983-2.209-.064 0-1.549.892-3.3 1.982m-70.983.294c0 .193.585.69 1.3 1.104 3.982 2.306 12.981 11.369 14.418 14.52.226.495.578.9.784.9.356 0-1.43-2.68-3.383-5.078-1.182-1.451-6.59-6.859-8.041-8.041-2.342-1.908-5.078-3.742-5.078-3.405m60.507 8.414c-3.886 4.377-6.554 7.955-8.06 10.81-.845 1.601-.154.953.899-.843 1.497-2.556 5.476-7.74 7.834-10.207 1.13-1.182 1.982-2.221 1.894-2.31-.089-.088-1.244 1.059-2.567 2.55M179.688 82.3c.084.165.991 2.01 2.013 4.1 1.023 2.09 1.869 3.601 1.88 3.357.025-.582-3.496-7.757-3.808-7.757-.132 0-.17.135-.085.3m31.512 5.339c0 .095-.357 1.148-.793 2.341-.436 1.192-.73 2.231-.653 2.307.076.076.361-.452.633-1.174.271-.722.686-1.718.921-2.212.234-.495.306-1.02.159-1.167-.147-.147-.267-.19-.267-.095M184.461 92.8c0 .33.242 1.23.539 2 .297.77.539 1.13.539.8 0-.33-.242-1.23-.539-2-.297-.77-.539-1.13-.539-.8m24.785.267c-.025.257-.162.797-.305 1.2-.201.569-.147.63.238.275.273-.251.41-.791.305-1.2-.105-.408-.212-.532-.238-.275M70.597 192.4c0 54.45.046 76.725.103 49.5.057-27.225.057-71.775 0-99-.057-27.225-.103-4.95-.103 49.5m137.708-96c-.151.77-.375 1.85-.498 2.4-.123.55.057.28.399-.6s.566-1.96.498-2.4c-.083-.526-.219-.32-.399.6m-22.671 1c-.012.44.153 1.07.366 1.4.514.795.514-.204 0-1.4l-.344-.8-.022.8m1.081 4.8c.155 1.54.282 5.32.282 8.4s-.127 6.86-.282 8.4l-.283 2.8.467-2.4c.257-1.32.467-5.28.467-8.8 0-3.52-.21-7.48-.467-8.8l-.467-2.4.283 2.8m20.3.815c-.154 1.239-.191 2.342-.081 2.452.11.11.327-.813.481-2.052.155-1.238.192-2.342.082-2.452-.11-.11-.327.814-.482 2.052m-.465 7.585c.001 2.42.066 3.358.146 2.085.08-1.273.079-3.253-.002-4.4-.08-1.147-.145-.105-.144 2.315m.32 5.8c-.013.55.125 1.72.307 2.6l.331 1.6-.001-1.4c-.002-1.765-.598-4.388-.637-2.8m.778 5.4c-.007.22.237 1.3.543 2.4.321 1.158.554 1.579.552 1-.004-.945-1.068-4.25-1.095-3.4m-21.775.753c-.15.392-.262 1.013-.248 1.38.017.442.156.341.412-.299.212-.531.324-1.152.248-1.38-.076-.227-.261-.093-.412.299m-1.037 4.283c-.27.903-.418 1.716-.328 1.806.09.09.385-.576.656-1.478.27-.903.418-1.716.328-1.806-.09-.09-.385.576-.656 1.478m24.791 2.211c-.04.662 1.655 4.604 1.883 4.377.107-.108-.068-.787-.39-1.51s-.783-1.764-1.025-2.314c-.243-.55-.453-.799-.468-.553m-26.727 3.246c-.712 1.518-.616 2.14.113.74.335-.642.559-1.311.498-1.487-.061-.176-.336.16-.611.747m-1.72 3.746c-.46.901-.767 1.707-.683 1.791.084.084.544-.654 1.022-1.639 1.09-2.244.796-2.376-.339-.152m32.42 2.077c0 .391 3.551 5.884 3.804 5.884.114 0-.544-1.215-1.464-2.7-1.772-2.86-2.34-3.633-2.34-3.184m-34.8 2.084c-.283.341-.424.709-.314.819.11.11.431-.078.714-.419.283-.341.424-.709.314-.819-.11-.11-.431.078-.714.419m-2.4 3.8c-.47.66-.764 1.2-.654 1.2.11 0 .584-.54 1.054-1.2.47-.66.764-1.2.654-1.2-.11 0-.584.54-1.054 1.2m42.694 2.372c.828 1.084 1.745 2.074 2.036 2.199.292.125-.315-.763-1.349-1.972-2.334-2.732-2.69-2.85-.687-.227m-44.294-.425c0 .429-6.106 6.732-7.95 8.206-.743.594-1.276 1.154-1.185 1.246.26.259 5.937-5.047 8.071-7.545 1.059-1.24 1.732-2.254 1.495-2.254-.237 0-.431.156-.431.347m48.8 5.358c3.727 3.548 8.8 7.473 8.8 6.808 0-.187-.585-.681-1.3-1.097-.715-.415-1.39-.859-1.5-.986-.11-.126-1.1-.95-2.2-1.829-1.1-.88-2.749-2.365-3.664-3.3-.916-.936-1.816-1.699-2-1.696-.185.003.654.948 1.864 2.1m-61.2 6.153c-2.939 2.05-3.436 2.477-2.027 1.743 1.785-.931 5.509-3.75 4.727-3.579-.055.012-1.27.838-2.7 1.836m-4.938 2.989c-.846.446-1.453.895-1.35.998.19.191 3.088-1.39 3.088-1.685 0-.226-.029-.215-1.738.687m79.738.577c0 .086.54.435 1.2.776.66.341 1.2.475 1.2.298s-.54-.526-1.2-.776c-.66-.249-1.2-.383-1.2-.298m-85.024 1.963c-1.01.764-.572.772.878.015.63-.328.865-.598.522-.6-.342-.001-.972.262-1.4.585m88.77.015c1.45.757 1.888.749.878-.015-.428-.323-1.058-.586-1.4-.585-.343.002-.108.272.522.6m-94.746 2.012c-1.541.706-.44.695 1.4-.014.876-.337 1.1-.538.6-.537-.44.001-1.34.249-2 .551M246.4 165c1.895.73 2.941.717 1.254-.016-.74-.321-1.64-.57-2-.554-.36.017-.024.273.746.57m-104 1c-.764.494.058.494 1.6 0l1-.32-1-.034c-.55-.019-1.27.141-1.6.354m107.8 0c1.196.514 2.195.514 1.4 0-.33-.213-.96-.378-1.4-.366l-.8.022.8.344m-128.787.779c-.314.509.241 1.565 2.482 4.721 2.56 3.605 2.495 3.076-.094-.769-2.612-3.88-2.647-4.062-.701-3.649 2.235.474 13.545.344 16.3-.187l2.4-.463-2.8.283c-3.758.38-14.038.362-15.869-.027-.902-.192-1.565-.157-1.718.091m134.387.252c3.238.63 13.371.593 16.564-.061 1.161-.238 1.326-.182 1.112.375-.138.36-.063.655.166.655s.352-.315.273-.7c-.122-.594-.474-.67-2.329-.501-3.289.3-13.435.241-16.386-.095-2.512-.285-2.491-.274.6.327m15.842 3.17c-.71.989-1.146 1.792-.967 1.784.394-.019 2.641-3.202 2.418-3.425-.087-.087-.74.651-1.451 1.641m-2.532 3.499a69.888 69.888 0 00-2.048 2.9c-.584.88-2.146 3.13-3.471 5-3.886 5.485-6.538 9.446-5.893 8.8.33-.33 2.87-3.84 5.644-7.8s5.196-7.385 5.383-7.61c.711-.861 1.758-2.59 1.568-2.59-.109 0-.641.585-1.183 1.3m-140.821 4c.212.275 3.043 4.235 6.289 8.8 3.246 4.565 5.996 8.3 6.111 8.3.115 0 .035-.225-.178-.5-.212-.275-3.043-4.235-6.289-8.8-3.246-4.565-5.996-8.3-6.111-8.3-.115 0-.035.225.178.5m124.07 19.8c-2.871 4.026-3.32 4.749-2.063 3.319 1.19-1.355 4.999-6.819 4.752-6.819-.106 0-1.317 1.575-2.689 3.5M141.6 196.4c.47.66.944 1.2 1.054 1.2.11 0-.184-.54-.654-1.2-.47-.66-.944-1.2-1.054-1.2-.11 0 .184.54.654 1.2m2 2.8c.47.66.944 1.2 1.054 1.2.11 0-.184-.54-.654-1.2-.47-.66-.944-1.2-1.054-1.2-.11 0 .184.54.654 1.2m3.183 4.5c1.114 1.595 2.494 3.44 3.066 4.1l1.04 1.2-.971-1.4c-2.952-4.261-4.81-6.8-4.974-6.8-.103 0 .725 1.305 1.839 2.9M248 203.6c-.47.66-.764 1.2-.654 1.2.11 0 .584-.54 1.054-1.2.47-.66.764-1.2.654-1.2-.11 0-.584.54-1.054 1.2m-2 2.8c-.47.66-.764 1.2-.654 1.2.11 0 .584-.54 1.054-1.2.47-.66.764-1.2.654-1.2-.11 0-.584.54-1.054 1.2m-6.033 8.5c-2.701 3.795-5.35 7.485-5.887 8.2-.536.715-.873 1.3-.748 1.3s2.695-3.465 5.712-7.7 5.658-7.925 5.87-8.2c.211-.275.29-.5.175-.5-.115 0-2.42 3.105-5.122 6.9m-86.879-2.4c.213.275 2.142 2.975 4.288 6 2.146 3.025 3.996 5.5 4.112 5.5.115 0 .036-.225-.176-.5-.213-.275-2.142-2.975-4.288-6-2.146-3.025-3.996-5.5-4.112-5.5-.115 0-.036.225.176.5m9.386 13.2c.534.715 2.097 2.875 3.475 4.8 1.378 1.925 2.605 3.5 2.726 3.5s-.216-.585-.749-1.3a435.992 435.992 0 01-3.475-4.8c-1.378-1.925-2.605-3.5-2.726-3.5s.216.585.749 1.3m67.989 2.3c-.488.66-.74 1.2-.561 1.2.179 0 .644-.54 1.034-1.2.39-.66.643-1.2.562-1.2-.081 0-.547.54-1.035 1.2m-4.669 6.489c-1.935 2.701-3.693 5.136-3.905 5.411-.218.281-.228.5-.024.5.199 0 .708-.585 1.129-1.3.704-1.194 2.675-3.936 4.006-5.574.301-.37.87-1.18 1.264-1.8.395-.619.896-1.251 1.115-1.404.219-.153.293-.383.165-.511-.127-.128-1.815 1.978-3.75 4.678m-55.129 2.52c4.084 5.93 5.146 7.361 5.473 7.376.186.008-.316-.84-1.116-1.885a74.047 74.047 0 01-2.446-3.405c-.546-.828-1.249-1.818-1.563-2.2-1.966-2.396-2.056-2.366-.348.114m-53.667.691c-.12.495-.168 15.21-.106 32.7l.113 31.8.097-32.233c.054-17.729.21-32.346.347-32.483.137-.137 1.23 1.093 2.428 2.733 1.198 1.641 2.271 2.983 2.385 2.983.114 0-.366-.765-1.066-1.7a98.446 98.446 0 01-2.288-3.2c-1.168-1.727-1.605-1.864-1.91-.6m158.602 1.5c-.47.66-.764 1.2-.654 1.2.11 0 .584-.54 1.054-1.2.47-.66.764-1.2.654-1.2-.11 0-.584.54-1.054 1.2m2.548 3.2c0 2.31.066 3.255.147 2.1a36.327 36.327 0 000-4.2c-.081-1.155-.147-.21-.147 2.1M220.4 242c-.47.66-.764 1.2-.654 1.2.11 0 .584-.54 1.054-1.2.47-.66.764-1.2.654-1.2-.11 0-.584.54-1.054 1.2m52.335.915A193.888 193.888 0 01270 246.7c-.698.935-1.193 1.7-1.099 1.7.093 0 1.308-1.485 2.699-3.3l2.913-3.8c.212-.275.228-.493.036-.485-.192.009-1.008.954-1.814 2.1m-55.986 4.185a435.992 435.992 0 01-3.475 4.8c-.533.715-.87 1.3-.749 1.3s1.348-1.575 2.726-3.5a435.992 435.992 0 013.475-4.8c.533-.715.87-1.3.749-1.3s-1.348 1.575-2.726 3.5m-89.709 2.8c2.104 2.805 3.977 5.369 4.163 5.697.185.328.423.508.527.4.228-.235-7.801-11.148-8.223-11.177-.16-.011 1.429 2.275 3.533 5.08m50.024-3.9c.39.66.862 1.2 1.049 1.2.188 0-.043-.54-.513-1.2-.47-.66-.942-1.2-1.05-1.2-.107 0 .124.54.514 1.2m2.055 2.797c.374.659.828 1.199 1.008 1.2.18.002-.057-.537-.527-1.197-1.098-1.542-1.358-1.543-.481-.003m88.804.703c-.763.889-1.228 1.7-.974 1.7.108 0 .581-.54 1.051-1.2.932-1.309.884-1.619-.077-.5m-86.804 2.097c.374.659.828 1.199 1.008 1.2.18.002-.057-.537-.527-1.197-1.098-1.542-1.358-1.543-.481-.003m83.612 2.108a202.253 202.253 0 01-2.735 3.795c-.696.935-1.179 1.7-1.074 1.7.105 0 1.462-1.71 3.016-3.8 1.555-2.09 2.699-3.798 2.544-3.795-.155.002-.943.947-1.751 2.1m-81.115 1.258c.752 1.046 1.54 2.01 1.751 2.14.211.13-.232-.619-.983-1.666-.752-1.046-1.54-2.01-1.751-2.14-.211-.13.232.619.983 1.666m26.238 1.61c-.935 1.427-.808 1.731.192.46.465-.591.759-1.161.654-1.267-.105-.105-.486.258-.846.807m-77.598.227c.23.33 1.819 2.49 3.532 4.8 1.713 2.31 3.2 4.425 3.306 4.7.105.275.368.5.583.5.315 0-1.254-2.42-2.982-4.6a379.38 379.38 0 01-2.137-2.8c-1.683-2.219-3.338-4.089-2.302-2.6m54.144 2c.47.66.944 1.2 1.054 1.2.11 0-.184-.54-.654-1.2-.47-.66-.944-1.2-1.054-1.2-.11 0 .184.54.654 1.2m91.658 52.738c.086 32.83.289 54.229.514 54.369.339.209 11.379-10.971 11.413-11.558.014-.236-3.387 3.216-8.521 8.651-1.479 1.565-2.372 2.239-2.566 1.938-.164-.254-.363-24.464-.441-53.8-.079-29.336-.233-53.428-.342-53.538-.109-.11-.135 24.162-.057 53.938m-70.613-51.676c-.557.846-1.841 2.663-2.853 4.038-1.011 1.375-1.693 2.49-1.516 2.478.434-.029 5.814-7.622 5.572-7.864-.105-.104-.646.502-1.203 1.348m50.755 2.613c-1.822 2.607-4.841 6.686-5.739 7.755-1.286 1.529-3.279 4.57-2.996 4.57.188 0 .832-.765 1.431-1.7.6-.935 2.52-3.59 4.267-5.9 5.102-6.747 5.705-7.6 5.362-7.594-.179.004-1.225 1.295-2.325 2.869m-68.617.825c1.114 1.595 2.494 3.44 3.066 4.1l1.04 1.2-.971-1.4c-2.952-4.261-4.81-6.8-4.974-6.8-.103 0 .725 1.305 1.839 2.9m12.033 4.677c-.479.673-.723 1.217-.543 1.21.438-.016 1.858-1.989 1.61-2.237-.108-.108-.588.354-1.067 1.027m-58.768 3.245c.934 1.331 1.868 2.526 2.076 2.654.478.296.098-.313-1.862-2.982-2.126-2.897-2.295-2.639-.214.328M194.4 270c1.098 1.542 1.358 1.543.481.003-.374-.659-.828-1.199-1.008-1.2-.18-.002.057.537.527 1.197m4.926 1.212c-.859 1.228-1.34 1.574-2.026 1.455-1.005-.174-1.229.321-.305.676.652.25 2.038-.922 3.127-2.643 1.068-1.687.473-1.305-.796.512m-51.861 6.188c1.226 1.65 2.313 3 2.416 3 .103 0-.495-.945-1.329-2.1a290.207 290.207 0 01-2.134-2.987c-.34-.489-.745-.894-.901-.9-.155-.007.721 1.337 1.948 2.987m101.05-1.7c-1.734 2.267-2.649 3.62-2.306 3.413.472-.286 3.128-3.913 2.865-3.913-.097 0-.348.225-.559.5m-3.715 5.1c-.47.66-.764 1.2-.654 1.2.11 0 .584-.54 1.054-1.2.47-.66.764-1.2.654-1.2-.11 0-.584.54-1.054 1.2m-93.546 1.733c.731 1.063 1.486 2.03 1.677 2.148.585.362-.438-1.199-1.758-2.681l-1.247-1.4 1.328 1.933m91.02 1.476c-.619.875-.979 1.584-.8 1.576.409-.019 2.626-3.188 2.222-3.176-.163.004-.803.724-1.422 1.6m-86.835 4.191c1.242 1.65 2.342 3 2.444 3 .102 0-.387-.765-1.088-1.7a81.078 81.078 0 01-2.135-2.995c-.473-.712-.999-1.297-1.17-1.3-.17-.003.707 1.345 1.949 2.995m83.903-.1c-.839 1.155-1.755 2.339-2.036 2.631-.281.292-.7.922-.93 1.4-.296.616-.13.529.572-.299 1.323-1.56 4.326-5.832 4.1-5.832-.099 0-.867.945-1.706 2.1m84.753 15.946c-.109 15.889.406 13.784-4.677 19.103-3.63 3.798-4.516 4.753-6.218 6.704-.77.882.984-.839 3.897-3.825 2.913-2.985 5.75-6.071 6.305-6.857l1.009-1.429-.111-13.771-.111-13.771-.094 13.846M158.8 292.8c.47.66.944 1.2 1.054 1.2.11 0-.184-.54-.654-1.2-.47-.66-.944-1.2-1.054-1.2-.11 0 .184.54.654 1.2m75.982 1.313c-2.934 4.215-3.512 5.122-2.604 4.087 1.648-1.879 3.852-5.001 3.521-4.987-.164.006-.577.411-.917.9m-73.569 1.987c.705.935 2.447 3.275 3.872 5.2 1.425 1.925 2.674 3.5 2.775 3.5.101 0-.501-.95-1.338-2.111-.837-1.161-2.512-3.492-3.722-5.179-1.21-1.688-2.351-3.079-2.535-3.09-.184-.011.243.745.948 1.68m68.242 5.4c-.798 1.045-1.84 2.404-2.314 3.02-1.939 2.517-3.983 5.613-3.091 4.68a16.969 16.969 0 001.683-2.131 21.278 21.278 0 011.476-2c1.092-1.265 4.064-5.469 3.867-5.469-.093 0-.822.855-1.621 1.9m-60.978 4.421c2.679 3.697 7.245 9.679 7.389 9.679.28 0-.174-.652-3.974-5.7-1.946-2.585-3.628-4.7-3.738-4.7-.109 0 .036.325.323.721m-97.617 7.755c-.033 2.572.075 4.76.24 4.863.165.102.249-1.552.187-3.677-.171-5.872-.36-6.398-.427-1.186M222 311.6c-.47.66-.764 1.2-.654 1.2.11 0 .584-.54 1.054-1.2.47-.66.764-1.2.654-1.2-.11 0-.584.54-1.054 1.2m-2.6 3.297c-.66.925-1.885 2.631-2.722 3.792s-1.437 2.111-1.334 2.111c.103 0 .872-.945 1.709-2.1.836-1.155 1.618-2.19 1.736-2.3.692-.642 2.399-3.199 2.131-3.191-.176.004-.86.764-1.52 1.688m-41.511 3.603c.212.275 2.227 2.975 4.477 6 2.25 3.025 4.189 5.5 4.31 5.5.12 0-.218-.585-.752-1.3-.534-.715-1.5-2.02-2.145-2.9-.646-.88-1.27-1.69-1.387-1.8-.117-.11-1.17-1.505-2.34-3.1-1.17-1.595-2.223-2.9-2.339-2.9-.116 0-.037.225.176.5m-104.458 2.8a479.167 479.167 0 004.986 5.111c3.048 3.077 1.38 1.155-3.242-3.736-1.416-1.499-2.635-2.894-2.708-3.1-.074-.206-.338-.375-.587-.375-.249 0 .449.945 1.551 2.1m140.43.94c-.407.558-.652 1.103-.544 1.21.108.108.588-.354 1.067-1.027.479-.673.723-1.217.543-1.21-.18.006-.66.469-1.066 1.027m-3.929 5.449c-2.41 3.266-3.274 4.689-1.788 2.943 1.322-1.552 4.332-5.832 4.102-5.832-.1 0-1.141 1.3-2.314 2.889M116.4 347.6c0 9.68-.155 17.6-.345 17.6-.297 0-4.094-3.903-13.755-14.141-1.265-1.341-2.3-2.294-2.3-2.118 0 .176 1.851 2.241 4.113 4.59 2.262 2.348 5.547 5.794 7.3 7.659 3.822 4.065 4.604 4.81 5.048 4.81.187 0 .339-8.1.339-18s-.09-18-.2-18c-.11 0-.2 7.92-.2 17.6m71.612-15.526c.707 1.03 1.818 2.47 2.467 3.2l1.182 1.326-1.242-1.8c-.683-.99-1.794-2.43-2.468-3.2l-1.225-1.4 1.286 1.874M83.2 331.42c0 .172 1.947 2.307 4.326 4.746a509.266 509.266 0 017.7 8.081c1.856 2.006 3.637 3.77 3.959 3.92.555.259-.977-1.412-8.038-8.767a7668.43 7668.43 0 01-5.509-5.746c-1.341-1.4-2.438-2.405-2.438-2.234m122.274 2.189c-1.453 2.054-1.176 2.049.478-.009.707-.88 1.142-1.596.967-1.591-.176.004-.826.724-1.445 1.6m104.214-.243c-.708.751-1.288 1.478-1.288 1.615 0 .271.955-.647 2.165-2.081 1.168-1.385.568-1.066-.877.466m-4.088 4.252c-11.048 11.783-12.208 13.059-7.98 8.782 7.978-8.072 10.537-10.777 10.359-10.952-.098-.097-1.169.879-2.379 2.17m-103.053.082c-.836 1.155-1.626 2.19-1.754 2.3-.129.11-.843 1.059-1.588 2.109-1.514 2.136-1.859 2.179-3.005.378-.44-.691-.947-1.263-1.126-1.272-.179-.008.181.701.8 1.576 1.553 2.195 1.719 2.119 4.974-2.291a691.46 691.46 0 013.264-4.4c.212-.275.289-.5.171-.5-.118 0-.899.945-1.736 2.1m-9.731.863c.752 1.046 1.54 2.01 1.751 2.14.211.13-.232-.619-.983-1.666-.752-1.046-1.54-2.01-1.751-2.14-.211-.13.232.619.983 1.666m98.872 13.603c-.708.751-1.288 1.496-1.288 1.655 0 .16.63-.377 1.4-1.194 1.267-1.343 1.608-1.827 1.288-1.827-.062 0-.692.614-1.4 1.366"
        ></path>
        <path
          fill="#7c7c7c"
          d="M70.581 79.4c-.001 7.92.053 11.217.118 7.326.066-3.891.066-10.371.001-14.4-.066-4.029-.119-.846-.119 7.074M324.596 200c0 41.91.047 59.055.104 38.1.057-20.955.057-55.245 0-76.2-.057-20.955-.104-3.81-.104 38.1M70.573 301c0 5.5.057 7.805.126 5.123.069-2.682.069-7.182 0-10-.069-2.818-.125-.623-.126 4.877m46.408 15.4c0 8.03.053 11.315.118 7.3.066-4.015.066-10.585 0-14.6-.065-4.015-.118-.73-.118 7.3M90 338.925c0 .069.585.654 1.3 1.3l1.3 1.175-1.175-1.3C90.33 338.888 90 338.616 90 338.925M278.173 352.6c0 5.5.057 7.805.126 5.123.069-2.682.069-7.182 0-10-.069-2.818-.125-.623-.126 4.877"
        ></path>
      </g>
    </svg>